<?xml version="1.0" encoding="utf-8"?>
<!-- Generator: Adobe Illustrator 19.0.0, SVG Export Plug-In . SVG Version: 6.00 Build 0)  -->
<svg version="1.1" id="Layer_1" xmlns="http://www.w3.org/2000/svg" xmlns:xlink="http://www.w3.org/1999/xlink" x="0px" y="0px"
	 viewBox="20 -220 1000 1000" style="enable-background:new 20 -220 1000 1000;" xml:space="preserve">
<style type="text/css">
	.st0{fill:none;}
	.st1{fill:#FFFFFF;}
	.st2{fill:#101311;}
	.st3{fill:#FACA36;}
</style>
<path class="st0" d="M644.2,301c0,75.7-61.4,137-137,137c-75.7,0-137-61.4-137-137c0-75.7,61.4-137,137-137
	C582.9,164,644.2,225.3,644.2,301z"/>
<g>
	<g>
		<path class="st1" d="M1011.8,280c0,271.6-220.2,491.8-491.8,491.8S28.2,551.6,28.2,280C28.2,8.4,248.4-211.8,520-211.8
			C791.6-211.8,1011.8,8.4,1011.8,280z"/>
		<path class="st2" d="M520,779.5c-133.4,0-258.9-52-353.2-146.3C72.5,538.9,20.5,413.4,20.5,280s52-258.9,146.3-353.2
			c94.3-94.3,219.8-146.3,353.2-146.3c133.4,0,258.9,52,353.2,146.3c94.3,94.3,146.3,219.8,146.3,353.2
			c0,133.4-52,258.9-146.3,353.2C778.9,727.5,653.4,779.5,520,779.5z M520-204.1C253-204.1,35.9,13,35.9,280
			C35.9,547,253,764.1,520,764.1c267,0,484.1-217.2,484.1-484.1C1004.1,13,787-204.1,520-204.1z"/>
	</g>
	<g>
		<path class="st1" d="M984.9,280c0,256.8-208.2,464.9-464.9,464.9S55.1,536.8,55.1,280c0-256.8,208.2-464.9,464.9-464.9
			S984.9,23.2,984.9,280z"/>
		<path class="st2" d="M520,749.3C261.2,749.3,50.7,538.8,50.7,280c0-258.8,210.5-469.3,469.3-469.3S989.3,21.2,989.3,280
			C989.3,538.8,778.8,749.3,520,749.3z M520-180.5C266.1-180.5,59.5,26.1,59.5,280c0,253.9,206.6,460.5,460.5,460.5
			c253.9,0,460.5-206.6,460.5-460.5C980.5,26.1,773.9-180.5,520-180.5z"/>
	</g>
	<path class="st2" d="M782.8,275.6c0,145.1-117.7,262.8-262.8,262.8c-145.1,0-262.8-117.7-262.8-262.8
		c0-145.1,117.7-262.8,262.8-262.8C665.1,12.8,782.8,130.5,782.8,275.6z"/>
	<g>
		<path class="st2" d="M175.5,202.5l8.8,7.8l34,8.1l-4.1,17.4l-110.6-26.4l4.1-17.4l48.2,11.5l-42.8-34.2l4.1-17.4l43.5,35.9
			l67.1-9.6l-4.3,17.9L175.5,202.5z"/>
		<path class="st2" d="M255.2,120.7l-7.7,16.3l-20-6.1l-9.4,19.8l17.3,11.6l-7,14.8l-94.9-65.3l11.2-23.6L255.2,120.7z M205.1,142.1
			l7.4-15.5l-55.6-16.9L205.1,142.1z"/>
		<path class="st2" d="M219.1,63.9l13.7-18.6l13.1,9.6l-13.7,18.6l37.8,27.9l-10.6,14.4l-91.5-67.5l28-38l13.1,9.6l-17.4,23.7
			L219.1,63.9z"/>
		<path class="st2" d="M260.1,12.5l17.9-16.8l11.1,11.8l-17.9,16.8L294,48.6l22.5-21.1l11.1,11.8l-35.5,33.4l-77.9-82.9l35.5-33.4
			l11.1,11.8l-22.5,21.1L260.1,12.5z"/>
		<path class="st2" d="M271.3-59.5l14.6-10.2l65.2,93.2l-14.6,10.2L271.3-59.5z"/>
		<path class="st2" d="M339-65l35.9,74.1l-14.5,7L310.9-86.2L331-96l46.2,53.3L347.6-104l14.3-6.9L411.4-8.6l-16.5,8L339-65z"/>
		<path class="st2" d="M477.5-25.6L460-21.3l-7.9-19.3l-21.3,5.2l1.9,20.8l-15.9,3.9l-9.1-114.8l25.4-6.2L477.5-25.6z M429.4-51
			l16.7-4.1l-21.9-53.8L429.4-51z"/>
		<path class="st2" d="M473.7-138.9l55.2-2.4l0.7,16.2l-18.7,0.8l4.3,97.4l-17.9,0.8l-4.3-97.4l-18.7,0.8L473.7-138.9z"/>
		<path class="st2" d="M566.7-89.8l24.3,3.4l-2.3,16.1l-24.3-3.4l-4.6,33l30.6,4.3l-2.3,16.1l-48.3-6.8l15.8-112.6l48.3,6.8
			l-2.3,16.1l-30.6-4.3L566.7-89.8z"/>
		<path class="st2" d="M686.6-28.4l-6.1,13.8c-7.4,16.6-19.9,22.4-35.9,15.3c-16-7.1-20.1-20.3-12.8-36.9l24-54
			c7.4-16.6,19.9-22.4,35.9-15.3c16,7.1,20.1,20.3,12.8,36.9L700-58.5l-15.4-6.9l4.9-11.1c3.3-7.4,1.3-11.7-3.9-14
			c-5.2-2.3-9.7-0.9-13,6.5l-24.9,56.1c-3.3,7.4-1.2,11.5,4,13.9c5.2,2.3,9.6,1.1,12.9-6.3l6.6-14.8L686.6-28.4z"/>
		<path class="st2" d="M725.7-56.5c10.5-14.8,24.3-17.8,38.7-7.6c14.3,10.1,16.1,24.2,5.6,39l-34.2,48.2
			c-10.5,14.8-24.4,17.8-38.7,7.6c-14.3-10.1-16.1-24.2-5.6-39L725.7-56.5z M705.4,3c-4.7,6.6-3.6,11.2,1.1,14.5
			c4.6,3.3,9.3,2.8,14-3.8L756-36.4c4.7-6.6,3.6-11.2-1.1-14.5c-4.6-3.3-9.3-2.8-14,3.8L705.4,3z"/>
		<path class="st2" d="M784.9,21.2l16,16.6L789.2,49l-16-16.6L739.4,65L727,52.1l81.9-78.8l32.8,34.1L830,18.6L809.6-2.6L784.9,21.2
			z"/>
		<path class="st2" d="M826.4,71.6l12.8,19.2l-13.5,9l-12.8-19.2l-39,26.1l-10-14.8l94.4-63.3l26.3,39.3l-13.5,9l-16.4-24.4
			L826.4,71.6z"/>
		<path class="st2" d="M860.9,127.7l9.7,22.5l-14.9,6.5l-9.7-22.5l-30.6,13.2l12.3,28.3l-14.9,6.5l-19.4-44.7l104.4-45.2l19.4,44.7
			l-14.9,6.5L890,115.1L860.9,127.7z"/>
		<path class="st2" d="M883.5,194l5.3,23.9l-15.9,3.5l-5.3-23.9l-32.5,7.3l6.7,30.1l-15.9,3.5l-10.6-47.6l111-24.8l10.6,47.6
			l-15.9,3.5l-6.7-30.1L883.5,194z"/>
	</g>
	<g>
		<g>
			<g>
				<g>
					<g>
						<g>
							<g>
								<g>
									<path class="st2" d="M855.8,352.6c0,0,24.5,15.3,17.1,40.9c0,0-23.9-8.3-17.3-41.8"/>
									<g>
										<path class="st2" d="M889,283.5c1.3,15.5,0.6,31-0.8,46.5c-1.5,15.5-4.1,30.8-7.8,45.9c-7.3,30.2-18.8,59.6-34.3,86.7
											c-15.5,27.2-35,52.1-57.5,73.9c-22.5,21.9-48,40.6-75.1,56.3l-5.4-9.6c26.9-14.5,52.3-32.1,74.9-52.7
											c22.6-20.6,42.4-44.4,58.4-70.7c16-26.2,28.3-54.8,36.4-84.6c4.1-14.9,7.1-30.1,9.1-45.4
											C888.8,314.4,889.8,298.9,889,283.5z"/>
										<path class="st2" d="M885.8,251.3c0,0,16.3,19.8,2.7,39.3c0,0-17.7-13.8-2.6-40.1"/>
										<path class="st2" d="M877.5,295.6c0,0,14.9,12.8,7.2,29.3c0,0-15.2-8.1-7.3-30"/>
										<path class="st2" d="M868.1,324.4c0,0,20.1,11.9,14.5,32.8c0,0-19.5-6.3-14.7-33.6"/>
										<path class="st2" d="M841.3,383.6c0,0,27.9,21.1,16,51.2c0,0-27.9-12.7-16.2-52.4"/>
										<path class="st2" d="M815.9,410.7c0,0,33.5,29.6,15.5,66.8c0,0-34.4-18.9-15.7-68.3"/>
										<path class="st2" d="M755.8,485.4c0,0,27.5,41.2-2.2,76.1c0,0-31.5-29.9,2.5-77.7"/>
										<path class="st2" d="M788.5,444.9c0,0,31.1,41.3,2.1,79.4c0,0-34.6-29.4-1.9-81.1"/>
										<path class="st2" d="M904.8,283c0,0,6.5,24.8-14,36.8c0,0-10.3-20,14.4-37.6"/>
										<path class="st2" d="M910.2,315.3c0,0,0,25.6-22.8,32.1c0,0-4.9-22,23.4-32.7"/>
										<path class="st2" d="M918,348.8c0,0-10.7,28.3-38.5,25.9c0,0,3.7-26.2,39.4-26.3"/>
										<path class="st2" d="M918.5,384c0,0-16.3,34.5-51.1,28.7c0,0,7.3-32.7,52.3-29.1"/>
										<path class="st2" d="M903.8,429.8c0,0-18.4,39.7-58.4,33.3c0,0,8.1-37.6,59.8-33.8"/>
										<path class="st2" d="M891.6,492.9c0,0-34.2,33.5-72.6,11.4c0,0,22.8-35.2,74.2-11.4"/>
										<path class="st2" d="M853.3,540.5c0,0-39.2,27.4-73.5-0.7c0,0,28.3-31,75.1,0.9"/>
										<path class="st2" d="M813.8,574.6c0,0-38.5,28.4-73.5,1.4c0,0,27.5-31.8,75.1-1.1"/>
									</g>
								</g>
							</g>
						</g>
					</g>
				</g>
			</g>
		</g>
		<g>
			<g>
				<g>
					<g>
						<g>
							<g>
								<g>
									<path class="st2" d="M184.2,352.6c0,0-24.5,15.3-17.1,40.9c0,0,23.9-8.3,17.3-41.8"/>
									<g>
										<path class="st2" d="M151,283.5c-0.8,15.5,0.3,31,2.2,46.3c2,15.3,5,30.5,9.1,45.4c8.1,29.8,20.4,58.4,36.4,84.6
											c16,26.2,35.8,50,58.4,70.7c22.6,20.7,48,38.2,74.9,52.7l-5.4,9.6c-27.1-15.7-52.6-34.5-75.1-56.3
											c-22.5-21.8-42-46.7-57.5-73.9c-15.5-27.1-27-56.5-34.3-86.7c-3.7-15.1-6.3-30.5-7.8-45.9
											C150.3,314.5,149.7,298.9,151,283.5z"/>
										<path class="st2" d="M154.2,251.3c0,0-16.3,19.8-2.7,39.3c0,0,17.7-13.8,2.6-40.1"/>
										<path class="st2" d="M162.5,295.6c0,0-14.9,12.8-7.2,29.3c0,0,15.2-8.1,7.3-30"/>
										<path class="st2" d="M171.9,324.4c0,0-20.1,11.9-14.5,32.8c0,0,19.5-6.3,14.7-33.6"/>
										<path class="st2" d="M198.7,383.6c0,0-27.9,21.1-16,51.2c0,0,27.9-12.7,16.2-52.4"/>
										<path class="st2" d="M224.1,410.7c0,0-33.5,29.6-15.5,66.8c0,0,34.4-18.9,15.7-68.3"/>
										<path class="st2" d="M284.2,485.4c0,0-27.5,41.2,2.2,76.1c0,0,31.5-29.9-2.5-77.7"/>
										<path class="st2" d="M251.5,444.9c0,0-31.1,41.3-2.1,79.4c0,0,34.6-29.4,1.9-81.1"/>
										<path class="st2" d="M135.2,283c0,0-6.5,24.8,14,36.8c0,0,10.3-20-14.4-37.6"/>
										<path class="st2" d="M129.8,315.3c0,0,0,25.6,22.8,32.1c0,0,4.9-22-23.4-32.7"/>
										<path class="st2" d="M122,348.8c0,0,10.7,28.3,38.5,25.9c0,0-3.7-26.2-39.4-26.3"/>
										<path class="st2" d="M121.5,384c0,0,16.3,34.5,51.1,28.7c0,0-7.3-32.7-52.3-29.1"/>
										<path class="st2" d="M136.2,429.8c0,0,18.4,39.7,58.4,33.3c0,0-8.1-37.6-59.8-33.8"/>
										<path class="st2" d="M148.4,492.9c0,0,34.2,33.5,72.6,11.4c0,0-22.8-35.2-74.2-11.4"/>
										<path class="st2" d="M186.7,540.5c0,0,39.2,27.4,73.5-0.7c0,0-28.3-31-75.1,0.9"/>
										<path class="st2" d="M226.2,574.6c0,0,38.5,28.4,73.5,1.4c0,0-27.5-31.8-75.1-1.1"/>
									</g>
								</g>
							</g>
						</g>
					</g>
				</g>
			</g>
		</g>
	</g>
	<g>
		<g>
			<path class="st2" d="M368.5,588.2c9.8,3.7,13.1,11,9.7,21.1c-0.3,0.8-0.4,1.2-0.7,2c-4-1.3-6-2-10-3.4c0.4-1,0.6-1.6,0.9-2.6
				c1.6-4.5,0.3-6.8-3-8c-3.3-1.2-5.8-0.3-7.5,4.2c-4.9,12.7,15.5,22.7,9.6,40.7c-3.3,10.1-11.3,14-22.7,9.7
				c-11.5-4.3-15-12.4-11-22.2c0.6-1.5,0.9-2.3,1.6-3.8c4.2,1.7,6.3,2.6,10.5,4.2c-0.7,1.8-1,2.7-1.7,4.4c-1.7,4.4,0,6.9,3.6,8.3
				c3.6,1.4,6.5,0.6,8.1-3.9c4.6-12.8-15.9-23.5-8.6-41C351.4,588,358.6,584.5,368.5,588.2z"/>
			<path class="st2" d="M390.1,596.4c4.1,1.3,6.2,1.9,10.3,3.1c-6.1,21.3-12.1,42.5-18.2,63.8c-4.8-1.4-7.1-2.1-11.9-3.5
				C377,638.6,383.5,617.5,390.1,596.4z"/>
			<path class="st2" d="M413.9,621.9c-4.5,18.7-6.7,28-11.2,46.7c-4.3-1-6.5-1.6-10.8-2.7c5.6-21.4,11.3-42.7,16.9-64.1
				c5.2,1.4,7.8,2,13.1,3.2c0.7,16.5,1.3,24.7,2.8,41.2c3.2-15.6,4.8-23.3,8-38.9c3.7,0.8,5.6,1.1,9.4,1.8
				c-4,21.7-7.9,43.5-11.9,65.2c-5-0.9-7.5-1.4-12.4-2.4C415.6,651.9,414.8,641.9,413.9,621.9z"/>
			<path class="st2" d="M477.4,655.8c-0.3,3.5-0.5,5.3-0.8,8.8c-0.9,10.6-7.7,16.1-19.7,14.6c-12-1.5-17.2-8.6-15.5-19.1
				c2.2-13.6,3.3-20.4,5.6-34c1.7-10.5,8-15.5,18.4-14.2c10.4,1.3,15.2,7.7,14.3,18.3c-0.2,2.6-0.3,3.9-0.6,6.4
				c-4.2-0.4-6.3-0.6-10.5-1.1c0.3-2.8,0.5-4.2,0.8-7.1c0.5-4.7-1.4-6.7-4.9-7.2s-5.8,1-6.5,5.7c-2,14.2-2.9,21.3-4.9,35.5
				c-0.6,4.7,1.5,6.7,5.3,7.2c3.8,0.5,6.4-1,6.9-5.7c0.4-3.8,0.6-5.6,1.1-9.4C470.9,655.2,473.1,655.5,477.4,655.8z"/>
			<path class="st2" d="M497.9,643.6c6.2,0.3,9.3,0.4,15.5,0.5c-0.1,3.8-0.1,5.7-0.1,9.5c-6.3-0.1-9.5-0.2-15.9-0.5
				c-0.4,7.8-0.6,11.6-0.9,19.4c8.3,0.4,12.5,0.5,20.8,0.6c0,3.8,0,5.7-0.1,9.5c-13.4-0.1-20.1-0.3-33.4-1.3
				c1.6-22,3.2-44.1,4.8-66.1c11.6,0.8,17.4,1.1,29,1.1c0,3.8,0,5.7-0.1,9.5c-7.5,0-11.3-0.1-18.8-0.5
				C498.4,632.5,498.2,636.2,497.9,643.6z"/>
			<path class="st2" d="M548.2,623.6c8.4-0.5,9.9-4.6,11.1-9.2c2.9-0.3,4.3-0.4,7.1-0.7c2.4,22,4.7,44,7.1,65.9
				c-4.9,0.5-7.3,0.8-12.2,1.2c-1.7-20.2-2.5-30.2-4.2-50.4c-3.4,0.3-5.1,0.4-8.5,0.6C548.5,628,548.4,626.5,548.2,623.6z"/>
			<path class="st2" d="M621.5,655.3c2.3,10.9-2.3,18.3-14.9,20.4c-11.9,2.1-19-3.2-20.4-13.7c-0.1-0.7-0.1-1-0.2-1.7
				c4.4-0.6,6.7-0.9,11.1-1.7c0.1,0.9,0.2,1.4,0.4,2.3c0.8,4.7,3.4,6.1,7.2,5.4c4.2-0.7,6.3-3,5.1-9.2c-0.9-4.8-1.3-7.2-2.2-11.9
				c-1.3,4.1-4.5,6.8-9.6,7.7c-8.5,1.4-13.6-3.4-14.9-13.1c-0.7-4.8-1-7.2-1.6-12c-1.4-10.5,3.4-17.2,13.7-19
				c10.3-1.8,17.2,2.8,19.4,13.2C617.3,635.4,618.7,642,621.5,655.3z M605.7,635.4c-0.9-4.7-1.3-7-2.2-11.7
				c-0.9-4.7-3.3-5.9-6.8-5.3c-3.4,0.6-5.3,2.6-4.5,7.3c0.8,4.7,1.1,7.1,1.9,11.8c0.8,4.7,3.3,6.1,6.9,5.5
				C604.6,642.2,606.5,640,605.7,635.4z"/>
			<path class="st2" d="M649.4,596.5c1.1,3.5,1.6,5.2,2.7,8.7c0.6,23.8,0.5,35.7-0.5,59.7c-4.8,1.3-7.2,1.9-12,3.1
				c1.6-23.8,2-35.7,2-59.3c-8.4,2.4-12.6,3.5-21.1,5.4c-0.9-3.7-1.3-5.5-2.1-9.2C630.9,602,637.1,600.3,649.4,596.5z"/>
			<path class="st2" d="M706,629c4.3,10.3,1,18.4-11.2,22.9c-11.5,4.3-19.4,0.4-22.7-9.7c-0.2-0.6-0.3-1-0.5-1.6
				c4.3-1.4,6.4-2.2,10.7-3.7c0.3,0.9,0.5,1.3,0.8,2.2c1.6,4.5,4.5,5.4,8.1,4c4.1-1.5,5.7-4.1,3.4-10c-1.7-4.5-2.6-6.8-4.4-11.3
				c-0.5,4.3-3.2,7.5-8.2,9.3c-8.2,3-14.1-0.9-17.2-10.1c-1.5-4.6-2.3-6.9-3.8-11.5c-3.3-10.1,0.3-17.6,10.2-21.2
				c9.9-3.7,17.6-0.4,21.7,9.4C698.2,610.2,700.8,616.5,706,629z M686.6,612.4c-1.7-4.5-2.6-6.7-4.3-11.1c-1.7-4.4-4.4-5.2-7.7-4
				s-4.8,3.6-3.2,8c1.6,4.5,2.4,6.7,4,11.2c1.6,4.5,4.4,5.4,7.9,4.1S688.3,616.8,686.6,612.4z"/>
		</g>
	</g>
	<g>
		<g>
			<ellipse class="st3" cx="532.2" cy="394.4" rx="119.6" ry="59.3"/>
			<ellipse class="st2" cx="532.2" cy="372.4" rx="76.3" ry="37.8"/>
		</g>
		<g>
			<path class="st1" d="M448.4,357.4c17.1,0,27.4-4.2,28.1-4.4c5.1-2.1,7.6-8,5.4-13.2c-2.1-5.1-8-7.6-13.2-5.4
				c-0.7,0.3-20.6,7.9-52.4-2.5c-17.5-5.7-22.6-17.2-23.9-25.8c-1.6-11.5,2.9-21.1,5.2-22.7c6.5-4.3,27.5-2,40.1,1.4
				c5.3,1.4,10.9-1.8,12.3-7.1c1.4-5.4-1.8-10.9-7.2-12.3c-6.5-1.7-39.8-9.8-56.4,1.4c-10.3,6.9-16.3,24.9-14,41.9
				c1.6,11.8,8.6,32.9,37.6,42.4C425,355.9,438,357.4,448.4,357.4"/>
			<g>
				<path class="st1" d="M532.6,271.1c-69.2,0-113.7-12.5-117.2-22.2c1.4,21.6,2.7,141.5,117.2,141.5
					c114.5,0,113.4-119.9,114.9-141.5C644,258.6,601.8,271.1,532.6,271.1z"/>
			</g>
			<path class="st2" d="M617.8,274.7c0,0-4.1,55.1-46.3,91.9c0,0,25.3-28.8,27.3-88.7L617.8,274.7z"/>
			<path class="st3" d="M549.8,245.6c5.8-3.7,23.9-10,44.5-18.7c3.9-1.7,8-3.5,12.1-5.3c39.7-18.2,68.5-49.3,60.1-78.8
				c-24.5-85.5-134.5-32.1-64.8,16.4c23.9,16.6,0.3,41.6-26.4,58.1c-4.6,2.8-9.8,4.8-14.8,7.2c-19.4,9.4-37,12.7-47.5,13.9
				c-20.3,2.4-29.3-4-3.2-12.6c4.9-1.6,10-4,16.3-5.8c0.1-0.1,0.5-0.1,2.5-1c70.3-20.7,33.3-62.9,30.8-65
				c-28.8-23.7-57.4,8.1-33.8,26.7c30.2,23.9-25.7,31-38.6,34c-5,1.4-68.2,9-68.2,23.7c0,12.8,49.9,23.1,111.6,23.1
				c61.6,0,111.6-10.3,111.6-23.1c0-3.1-5.5-6.5-11-9.2C590.6,254.3,535.2,254.9,549.8,245.6z"/>
		</g>
	</g>
</g>
</svg>
