<?xml version="1.0" encoding="utf-8"?>
<!-- Generator: Adobe Illustrator 19.0.0, SVG Export Plug-In . SVG Version: 6.00 Build 0)  -->
<svg version="1.1" id="Layer_1" xmlns="http://www.w3.org/2000/svg" xmlns:xlink="http://www.w3.org/1999/xlink" x="0px" y="0px"
	 viewBox="-481.7 256.4 50 50" style="enable-background:new -481.7 256.4 50 50;" xml:space="preserve">
<style type="text/css">
	.st0{fill:#E2E1E1;}
</style>
<path id="Forma_1" class="st0" d="M-432,266c-0.3-0.4-0.8-0.7-1.3-0.7h-36.1c-0.1,0-0.1,0-0.2,0l-1.5-4.5c-0.2-0.5-0.5-0.8-0.9-1
	l-7.5-3.1c-0.8-0.4-1.8,0.1-2.1,0.9c-0.3,0.9,0.1,1.9,0.9,2.2c0,0,0,0,0,0l6.8,2.8l8.3,25.5c-0.4,0.1-0.7,0.4-0.8,0.9l-2.4,7.1
	c-0.1,0.4-0.1,0.9,0.2,1.3c0.2,0.4,0.7,0.6,1.1,0.6h1.2c-0.8,0.9-1.2,2.1-1.2,3.4c0,2.8,2.1,5.1,4.8,5.1c2.7,0,4.8-2.3,4.8-5.1
	c0-1.3-0.4-2.5-1.2-3.4h10.5c-0.8,0.9-1.2,2.1-1.2,3.4c0,2.8,2.2,5.1,4.8,5.1c2.6,0,4.8-2.3,4.8-5.1c0-1.3-0.4-2.5-1.2-3.4h1.5
	c0.7,0,1.3-0.6,1.3-1.4c0-0.8-0.6-1.4-1.3-1.4h-25.6l1.5-4.4c0.2,0.1,0.4,0.1,0.6,0.1h23.5c0.7,0,1.3-0.5,1.5-1.2l6.7-22.1
	C-431.7,266.9-431.8,266.4-432,266z M-462.8,303.6c-1.2,0-2.1-1-2.1-2.3c0-1.3,1-2.3,2.2-2.3c1.2,0,2.1,1,2.1,2.3
	C-460.6,302.6-461.6,303.6-462.8,303.6C-462.7,303.6-462.8,303.6-462.8,303.6L-462.8,303.6z M-445.1,303.6c-1.2,0-2.1-1-2.1-2.3
	c0-1.3,1-2.3,2.1-2.3c1.2,0,2.1,1,2.1,2.3c0,0,0,0,0,0C-443,302.6-443.9,303.6-445.1,303.6z M-436.7,272.5h-8.2v-3.8h9.3
	L-436.7,272.5z M-439.1,280.3h-5.8v-4.4h7.2L-439.1,280.3z M-455.5,280.3v-4.4h7.4v4.4L-455.5,280.3L-455.5,280.3z M-448.1,283.7
	v3.7h-7.4v-3.7L-448.1,283.7L-448.1,283.7z M-466.2,275.9h7.5v4.4h-6L-466.2,275.9z M-455.5,272.5v-3.8h7.4v3.8L-455.5,272.5
	L-455.5,272.5z M-458.7,268.7v3.8h-8.6l-1.2-3.8H-458.7z M-463.6,283.7h4.9v3.7h-3.7L-463.6,283.7z M-444.9,287.4v-3.7h4.8l-1.1,3.7
	C-441.2,287.4-444.9,287.4-444.9,287.4z"/>
</svg>
