<?xml version="1.0" encoding="utf-8"?>
<!-- Generator: Adobe Illustrator 19.0.0, SVG Export Plug-In . SVG Version: 6.00 Build 0)  -->
<svg version="1.1" id="Layer_1" xmlns="http://www.w3.org/2000/svg" xmlns:xlink="http://www.w3.org/1999/xlink" x="0px" y="0px"
	 viewBox="-483.9 255.8 50 50" style="enable-background:new -483.9 255.8 50 50;" xml:space="preserve">
<style type="text/css">
	.st0{fill:#E2E1E1;}
</style>
<path id="Forma_1" class="st0" d="M-435,300.3l-13-13c6.3-9,4.2-21.4-4.7-27.8c-8.9-6.4-21.3-4.2-27.6,4.7c-6.3,9-4.2,21.4,4.7,27.8
	c6.9,4.9,16.1,4.9,23-0.1l12.9,13c1.3,1.2,3.3,1.2,4.6,0l0,0c1.3-1.1,1.4-3.1,0.3-4.4C-434.8,300.4-434.9,300.3-435,300.3z
	 M-463.9,290.9c-8.3,0-15.1-6.7-15.1-15.1c0-8.4,6.7-15.1,15-15.2c8.3,0,15.1,6.7,15.1,15.1c0,0,0,0,0,0
	C-448.8,284.2-455.6,290.9-463.9,290.9C-463.9,290.9-463.9,290.9-463.9,290.9z"/>
</svg>
